<?xml version="1.0" standalone="no"?>
<!DOCTYPE svg PUBLIC "-//W3C//DTD SVG 20010904//EN"
 "http://www.w3.org/TR/2001/REC-SVG-20010904/DTD/svg10.dtd">
<svg version="1.0" xmlns="http://www.w3.org/2000/svg"
 width="260.000000pt" height="260.000000pt" viewBox="0 0 260.000000 260.000000"
 preserveAspectRatio="xMidYMid meet">
<metadata>
Created by potrace 1.11, written by Peter Selinger 2001-2013
</metadata>
<g transform="translate(0.000000,260.000000) scale(0.100000,-0.100000)"
fill="#000000" stroke="none">
<path d="M455 1778 c-41 -24 -44 -38 -45 -200 0 -134 2 -158 15 -158 13 0 15
23 15 145 0 132 2 147 20 165 24 24 46 26 66 6 20 -20 17 -53 -6 -76 -19 -19
-20 -33 -20 -231 0 -206 0 -211 -22 -230 -31 -25 -40 -24 -38 9 1 15 2 48 1
75 l-1 47 -49 0 c-104 0 -141 36 -141 138 0 68 15 91 49 72 18 -9 21 -20 21
-70 0 -62 21 -100 54 -100 26 0 30 23 8 38 -18 11 -22 24 -22 63 0 90 -31 121
-111 112 l-36 -5 -2 -92 c-2 -81 1 -96 21 -126 29 -44 80 -70 136 -70 l43 0
-3 -57 -3 -58 -57 -3 c-43 -2 -58 -7 -58 -18 0 -12 32 -14 220 -12 136 2 221
7 223 13 1 6 -30 11 -75 13 l-78 3 0 50 c0 27 6 59 13 70 10 17 10 23 0 26 -7
3 -13 18 -13 34 0 28 2 29 45 29 65 0 111 26 135 75 11 23 20 53 20 68 0 15 5
27 10 27 6 0 10 7 10 15 0 8 -4 15 -10 15 -5 0 -10 7 -10 15 0 53 -58 94 -104
74 -31 -15 -46 -49 -46 -109 0 -39 -4 -52 -20 -60 -11 -6 -20 -17 -20 -25 0
-8 -3 -15 -8 -15 -4 0 -6 72 -4 160 l2 160 -22 -1 c-13 -1 -36 2 -53 5 -17 3
-39 1 -50 -6z m278 -159 c8 -13 6 -21 -6 -34 -10 -10 -17 -32 -17 -55 0 -29
-6 -43 -22 -54 -35 -25 -53 -21 -34 6 9 13 16 43 16 71 0 77 34 112 63 66z"/>
<path d="M1860 1501 c-16 -16 -36 -52 -45 -83 -11 -39 -22 -57 -35 -61 -23 -6
-27 -37 -5 -37 11 0 15 -11 15 -39 0 -32 -5 -43 -29 -60 -62 -45 -114 -11 -90
59 12 33 39 41 39 12 0 -24 8 -32 26 -25 8 3 14 16 14 28 0 43 -10 55 -47 55
-44 0 -80 -36 -89 -89 -5 -31 -13 -43 -36 -54 -29 -14 -68 -12 -68 3 0 4 14
13 30 20 34 14 50 37 50 72 0 33 -18 48 -56 48 -44 0 -80 -39 -88 -94 -6 -38
-20 -56 -43 -56 -2 0 -2 34 2 75 7 73 7 75 -14 75 -33 0 -59 -17 -77 -51 -20
-39 -25 -34 -15 14 8 32 6 37 -9 37 -21 0 -36 -17 -42 -45 -5 -31 -31 -28 -53
8 -43 68 -140 37 -152 -49 -6 -46 -32 -68 -74 -62 -26 3 -36 38 -25 84 8 29
36 32 36 5 0 -23 11 -33 26 -23 17 11 22 35 13 60 -6 17 -16 22 -42 22 -58 0
-104 -63 -92 -126 11 -59 60 -81 130 -58 39 14 46 14 69 -1 16 -11 33 -14 48
-10 28 9 68 44 68 61 0 6 9 14 20 17 17 4 20 0 20 -28 0 -32 24 -64 38 -51 4
4 18 34 32 68 14 33 29 60 34 59 5 -1 9 -26 10 -57 1 -71 17 -84 69 -59 31 14
40 15 53 5 21 -19 96 -16 124 3 21 14 26 15 39 3 31 -28 64 -28 115 -2 42 21
51 23 60 11 23 -30 106 -40 122 -14 3 5 16 2 29 -7 23 -15 26 -14 49 9 23 23
26 24 31 7 3 -10 13 -21 21 -24 25 -10 79 19 104 55 13 19 25 36 28 39 4 6 32
-30 32 -42 0 -4 -12 -8 -26 -8 -21 0 -25 -4 -22 -22 6 -43 83 -35 95 10 9 35
6 50 -19 84 -14 21 -18 37 -13 58 6 26 4 30 -14 30 -15 0 -28 -15 -47 -52 -27
-54 -70 -108 -87 -108 -9 0 -6 46 9 118 6 31 5 33 -16 30 -18 -2 -27 -15 -41
-57 -32 -93 -66 -107 -49 -21 14 68 12 80 -9 80 -20 0 -41 -44 -41 -85 0 -12
-10 -31 -23 -43 -45 -43 -77 -22 -77 50 l0 48 44 0 c28 0 46 5 49 14 7 18 -1
26 -29 26 l-23 0 24 36 c28 42 33 95 9 118 -22 22 -31 20 -64 -13z m26 -90
c-9 -16 -21 -33 -27 -37 -15 -9 -2 51 20 91 l16 30 3 -27 c2 -15 -4 -40 -12
-57z m-740 -199 c-26 -26 -51 -4 -50 43 2 55 23 61 47 13 18 -37 19 -41 3 -56z
m404 84 c0 -17 -39 -48 -51 -40 -5 2 -3 16 3 29 12 27 48 34 48 11z"/>
<path d="M800 1155 c0 -9 5 -15 11 -13 6 2 11 8 11 13 0 5 -5 11 -11 13 -6 2
-11 -4 -11 -13z"/>
</g>
</svg>
